<?xml version="1.0" standalone="no"?>
<!DOCTYPE svg PUBLIC "-//W3C//DTD SVG 20010904//EN"
 "http://www.w3.org/TR/2001/REC-SVG-20010904/DTD/svg10.dtd">
<svg version="1.0" xmlns="http://www.w3.org/2000/svg"
 width="700.000000pt" height="700.000000pt" viewBox="0 0 700.000000 700.000000"
 preserveAspectRatio="xMidYMid meet">
<metadata>
Created by potrace 1.14, written by Peter Selinger 2001-2017
</metadata>
<g transform="translate(0.000000,700.000000) scale(0.100000,-0.100000)"
fill="#000000" stroke="none">
<path d="M1979 6996 c-2 -2 -20 -6 -39 -9 -69 -11 -95 -19 -168 -49 -198 -82
-362 -251 -437 -451 -14 -38 -28 -85 -31 -105 -3 -20 -9 -41 -12 -47 -4 -5 -7
-238 -8 -516 l-1 -505 -41 -53 c-79 -100 -85 -172 -39 -428 36 -197 55 -256
100 -308 30 -37 119 -81 166 -84 19 -1 37 -4 40 -7 3 -3 7 -35 8 -72 6 -145
64 -339 136 -457 37 -60 131 -195 157 -225 68 -78 189 -195 263 -253 l77 -61
0 -98 c0 -99 -8 -131 -39 -155 -15 -12 -92 -38 -137 -47 -11 -3 -75 -20 -144
-39 -69 -19 -138 -38 -155 -43 -16 -4 -214 -8 -440 -9 -392 -2 -412 -3 -457
-23 -110 -49 -178 -147 -186 -269 -3 -41 -9 -73 -15 -73 -29 0 -200 -124 -278
-202 -127 -128 -232 -318 -255 -465 -3 -21 -8 -41 -11 -46 -8 -13 -18 -468
-28 -1249 -3 -265 -1 -327 11 -370 39 -131 141 -230 279 -267 28 -8 767 -11
2521 -11 2461 0 2482 0 2545 20 123 39 213 129 250 250 20 68 21 82 15 448 -4
207 -9 521 -11 697 -5 356 -10 464 -24 513 -5 18 -10 35 -10 37 0 22 -39 132
-67 189 -93 188 -260 354 -465 461 l-57 29 -5 56 c-11 126 -111 242 -228 266
-19 4 -203 8 -409 9 l-375 2 -219 61 c-278 77 -270 71 -274 220 l-3 107 73 57
c183 142 354 345 448 530 l53 103 328 0 c261 0 329 -3 329 -13 0 -7 -25 -112
-55 -233 -31 -122 -57 -237 -59 -257 -4 -54 14 -100 54 -141 64 -64 157 -74
232 -25 30 19 213 158 433 329 17 12 122 94 235 181 l205 158 405 2 c267 1
422 5 455 13 188 44 348 216 373 401 3 25 6 392 6 815 0 595 -3 782 -13 825
-17 70 -72 174 -119 224 -70 74 -185 136 -277 150 -16 2 -538 5 -1160 5
l-1130 1 -17 43 c-43 104 -170 258 -268 324 -69 46 -161 90 -242 115 -73 22
-75 22 -929 25 -470 2 -857 2 -860 -1z"/>
</g>
</svg>
